<mxfile host="app.diagrams.net" modified="2023-11-17T05:13:10.371Z" agent="Mozilla/5.0 (Macintosh; Intel Mac OS X 10_15_7) AppleWebKit/537.36 (KHTML, like Gecko) Chrome/118.0.0.0 Safari/537.36" etag="WbQdbPVrCqIXMBA_eWIQ" version="22.1.2" type="github">
  <diagram name="ページ1" id="YAGwpV1NzTfXPRTR31jT">
    <mxGraphModel dx="954" dy="634" grid="1" gridSize="10" guides="1" tooltips="1" connect="1" arrows="1" fold="1" page="1" pageScale="1" pageWidth="827" pageHeight="1169" math="0" shadow="0">
      <root>
        <mxCell id="0" />
        <mxCell id="1" parent="0" />
        <mxCell id="HB2tHTdJdVW9awl2zxIp-1" value="ER" style="whiteSpace=wrap;html=1;aspect=fixed;fontFamily=Times New Roman;fontSize=25;" parent="1" vertex="1">
          <mxGeometry x="560" y="120" width="80" height="80" as="geometry" />
        </mxCell>
        <mxCell id="HB2tHTdJdVW9awl2zxIp-2" value="" style="endArrow=none;dashed=1;html=1;rounded=0;endSize=6;strokeWidth=2;" parent="1" edge="1">
          <mxGeometry width="50" height="50" relative="1" as="geometry">
            <mxPoint x="480" y="160" as="sourcePoint" />
            <mxPoint x="560" y="160" as="targetPoint" />
          </mxGeometry>
        </mxCell>
        <mxCell id="HB2tHTdJdVW9awl2zxIp-3" value="&lt;sup&gt;214&lt;/sup&gt;Ra" style="whiteSpace=wrap;html=1;aspect=fixed;fontFamily=Times New Roman;fontSize=25;" parent="1" vertex="1">
          <mxGeometry x="400" y="120" width="80" height="80" as="geometry" />
        </mxCell>
        <mxCell id="HB2tHTdJdVW9awl2zxIp-4" value="" style="endArrow=classic;html=1;rounded=0;exitX=0;exitY=1;exitDx=0;exitDy=0;entryX=0.5;entryY=0;entryDx=0;entryDy=0;" parent="1" target="HB2tHTdJdVW9awl2zxIp-5" edge="1">
          <mxGeometry width="50" height="50" relative="1" as="geometry">
            <mxPoint x="440" y="200" as="sourcePoint" />
            <mxPoint x="360" y="280" as="targetPoint" />
          </mxGeometry>
        </mxCell>
        <mxCell id="HB2tHTdJdVW9awl2zxIp-5" value="&lt;sup&gt;211&lt;/sup&gt;Rn" style="whiteSpace=wrap;html=1;aspect=fixed;fontFamily=Times New Roman;fontSize=25;" parent="1" vertex="1">
          <mxGeometry x="360" y="280" width="80" height="80" as="geometry" />
        </mxCell>
        <mxCell id="HB2tHTdJdVW9awl2zxIp-8" value="&lt;font style=&quot;font-size: 20px;&quot;&gt;Eα : 8.95 MeV&lt;br style=&quot;font-size: 20px;&quot;&gt;&lt;div style=&quot;text-align: left; font-size: 20px;&quot;&gt;&lt;span style=&quot;background-color: initial; font-size: 20px;&quot;&gt;Δt : 68.8 μs&lt;/span&gt;&lt;/div&gt;&lt;/font&gt;" style="text;html=1;strokeColor=none;fillColor=none;align=center;verticalAlign=middle;whiteSpace=wrap;rounded=0;labelPosition=center;verticalLabelPosition=middle;spacing=2;fontFamily=Times New Roman;fontSize=20;" parent="1" vertex="1">
          <mxGeometry x="440" y="210" width="149" height="50" as="geometry" />
        </mxCell>
      </root>
    </mxGraphModel>
  </diagram>
</mxfile>
